<svg width="160" height="34" viewBox="0 0 160 34" fill="none" xmlns="http://www.w3.org/2000/svg">
<path d="M1.16 26V25.7L1.7 25.49C2.1 25.33 2.37 25.13 2.51 24.89C2.67 24.65 2.75 24.33 2.75 23.93V8.27C2.75 7.85 2.67 7.52 2.51 7.28C2.37 7.04 2.1 6.85 1.7 6.71L1.16 6.5V6.2H9.77C12.21 6.2 13.97 6.65 15.05 7.55C16.13 8.43 16.67 9.55 16.67 10.91C16.67 11.93 16.27 12.86 15.47 13.7C14.69 14.52 13.34 15.1 11.42 15.44C13.62 15.68 15.23 16.26 16.25 17.18C17.27 18.08 17.78 19.18 17.78 20.48C17.78 21.12 17.64 21.77 17.36 22.43C17.08 23.07 16.6 23.66 15.92 24.2C15.26 24.74 14.35 25.18 13.19 25.52C12.03 25.84 10.56 26 8.78 26H1.16ZM7.19 15.41H8.48C9.82 15.41 10.78 15.1 11.36 14.48C11.96 13.86 12.26 12.78 12.26 11.24C12.26 9.64 11.99 8.5 11.45 7.82C10.91 7.14 10.03 6.8 8.81 6.8H7.19V15.41ZM7.19 25.4H8.69C10.19 25.4 11.3 25 12.02 24.2C12.76 23.4 13.13 22.15 13.13 20.45C13.13 18.85 12.78 17.71 12.08 17.03C11.38 16.35 10.23 16.01 8.63 16.01H7.19V25.4ZM26.7355 11.12C28.0355 11.12 29.1455 11.39 30.0655 11.93C30.9855 12.45 31.6855 13.17 32.1655 14.09C32.6655 14.99 32.9155 16.02 32.9155 17.18C32.9155 17.4 32.9055 17.63 32.8855 17.87C32.8655 18.09 32.8255 18.29 32.7655 18.47H23.8255C23.8455 20.63 24.2255 22.19 24.9655 23.15C25.7255 24.09 26.8455 24.56 28.3255 24.56C29.3255 24.56 30.1355 24.4 30.7555 24.08C31.3755 23.76 31.9555 23.29 32.4955 22.67L32.7955 22.94C32.1755 24.04 31.3455 24.9 30.3055 25.52C29.2855 26.14 28.0555 26.45 26.6155 26.45C25.1955 26.45 23.9355 26.15 22.8355 25.55C21.7355 24.93 20.8755 24.05 20.2555 22.91C19.6355 21.77 19.3255 20.41 19.3255 18.83C19.3255 17.19 19.6855 15.8 20.4055 14.66C21.1255 13.5 22.0455 12.62 23.1655 12.02C24.3055 11.42 25.4955 11.12 26.7355 11.12ZM26.6455 11.72C26.0655 11.72 25.5655 11.9 25.1455 12.26C24.7455 12.6 24.4255 13.22 24.1855 14.12C23.9655 15 23.8455 16.25 23.8255 17.87H28.9555C29.1555 15.69 29.0755 14.12 28.7155 13.16C28.3555 12.2 27.6655 11.72 26.6455 11.72ZM38.6734 26.45C37.5134 26.45 36.5334 26.12 35.7334 25.46C34.9534 24.8 34.5634 23.85 34.5634 22.61C34.5634 21.67 35.0434 20.81 36.0034 20.03C36.9634 19.23 38.4734 18.63 40.5334 18.23C40.8534 18.17 41.2134 18.11 41.6134 18.05C42.0134 17.97 42.4334 17.89 42.8734 17.81V15.44C42.8734 14.08 42.7034 13.13 42.3634 12.59C42.0434 12.03 41.5334 11.75 40.8334 11.75C40.3534 11.75 39.9734 11.91 39.6934 12.23C39.4134 12.53 39.2334 13.06 39.1534 13.82L39.0934 14.15C39.0534 15.01 38.8434 15.64 38.4634 16.04C38.0834 16.44 37.6134 16.64 37.0534 16.64C36.5334 16.64 36.1034 16.48 35.7634 16.16C35.4234 15.84 35.2534 15.41 35.2534 14.87C35.2534 14.05 35.5334 13.36 36.0934 12.8C36.6734 12.24 37.4334 11.82 38.3734 11.54C39.3134 11.26 40.3334 11.12 41.4334 11.12C43.2134 11.12 44.5834 11.56 45.5434 12.44C46.5234 13.3 47.0134 14.71 47.0134 16.67V23.3C47.0134 24.2 47.4334 24.65 48.2734 24.65H48.9334L49.2034 24.89C48.8234 25.37 48.4034 25.74 47.9434 26C47.5034 26.26 46.8734 26.39 46.0534 26.39C45.1734 26.39 44.4734 26.19 43.9534 25.79C43.4534 25.37 43.1234 24.82 42.9634 24.14C42.3634 24.78 41.7434 25.33 41.1034 25.79C40.4834 26.23 39.6734 26.45 38.6734 26.45ZM40.5034 24.62C40.9034 24.62 41.2734 24.53 41.6134 24.35C41.9734 24.15 42.3934 23.85 42.8734 23.45V18.41C42.6734 18.45 42.4734 18.49 42.2734 18.53C42.0734 18.57 41.8434 18.61 41.5834 18.65C40.6634 18.89 39.9234 19.3 39.3634 19.88C38.8234 20.44 38.5534 21.2 38.5534 22.16C38.5534 22.98 38.7434 23.6 39.1234 24.02C39.5034 24.42 39.9634 24.62 40.5034 24.62ZM55.0163 26.45C54.2363 26.45 53.5163 26.3 52.8563 26C52.2163 25.7 51.7063 25.22 51.3263 24.56C50.9663 23.88 50.7963 22.99 50.8163 21.89L50.9063 14.18C50.9063 13.72 50.8263 13.39 50.6663 13.19C50.5063 12.99 50.2563 12.85 49.9163 12.77L49.5563 12.65V12.35L54.9263 11.3L55.2263 11.6L55.0763 15.86V23.09C55.0763 23.73 55.2563 24.2 55.6163 24.5C55.9963 24.8 56.4663 24.95 57.0263 24.95C57.5863 24.95 58.0863 24.87 58.5263 24.71C58.9663 24.55 59.4063 24.31 59.8463 23.99L59.9663 14.21C59.9663 13.75 59.8963 13.43 59.7563 13.25C59.6163 13.05 59.3563 12.91 58.9763 12.83L58.6763 12.74V12.44L63.9263 11.3L64.2263 11.6L64.1363 15.86V23.99C64.1363 24.43 64.1963 24.77 64.3163 25.01C64.4363 25.25 64.6963 25.45 65.0963 25.61L65.3963 25.7V26L60.1463 26.3L59.8763 24.53C59.2163 25.07 58.4963 25.53 57.7163 25.91C56.9563 26.27 56.0563 26.45 55.0163 26.45ZM72.3078 26.45C71.0278 26.45 70.0278 26.13 69.3078 25.49C68.6078 24.85 68.2578 23.83 68.2578 22.43V12.17H66.1878V11.87L66.9078 11.75C67.5278 11.61 68.0578 11.41 68.4978 11.15C68.9578 10.89 69.4078 10.54 69.8478 10.1L72.3078 7.37H72.6078L72.5178 11.57H75.8778V12.17H72.4878V22.97C72.4878 23.67 72.6378 24.2 72.9378 24.56C73.2578 24.92 73.6578 25.1 74.1378 25.1C74.5578 25.1 74.9278 25 75.2478 24.8C75.5678 24.58 75.8878 24.29 76.2078 23.93L76.5078 24.23C76.1078 24.91 75.5578 25.45 74.8578 25.85C74.1578 26.25 73.3078 26.45 72.3078 26.45ZM80.2955 33.2C79.4955 33.2 78.8555 33 78.3755 32.6C77.9155 32.2 77.6855 31.69 77.6855 31.07C77.6855 30.51 77.8855 30.06 78.2855 29.72C78.6855 29.38 79.1355 29.21 79.6355 29.21C80.1355 29.21 80.5555 29.31 80.8955 29.51C81.2355 29.73 81.5355 30.04 81.7955 30.44L82.0055 30.68C82.4455 31.28 82.8855 31.27 83.3255 30.65C83.5055 30.35 83.7055 29.95 83.9255 29.45C84.1655 28.97 84.4355 28.32 84.7355 27.5L78.9155 13.58C78.7755 13.2 78.6255 12.9 78.4655 12.68C78.3055 12.44 78.0455 12.24 77.6855 12.08L77.1455 11.87V11.57H84.6155V11.84L84.0155 12.08C83.5755 12.22 83.3455 12.45 83.3255 12.77C83.3255 13.07 83.4055 13.45 83.5655 13.91L86.6855 22.01L89.6555 13.82C89.8155 13.36 89.8755 12.98 89.8355 12.68C89.7955 12.36 89.5455 12.14 89.0855 12.02L88.4555 11.87V11.57H92.6255V11.87L91.9655 12.08C91.5055 12.22 91.1855 12.42 91.0055 12.68C90.8255 12.94 90.6555 13.3 90.4955 13.76L85.6655 26.93C84.8855 29.03 84.1055 30.6 83.3255 31.64C82.5455 32.68 81.5355 33.2 80.2955 33.2ZM100.213 26V25.7L100.843 25.46C101.263 25.3 101.523 25.11 101.623 24.89C101.743 24.65 101.803 24.33 101.803 23.93V8.27C101.803 7.87 101.743 7.55 101.623 7.31C101.503 7.07 101.243 6.88 100.843 6.74L100.213 6.5V6.2H107.863V6.5L107.323 6.74C106.943 6.88 106.683 7.08 106.543 7.34C106.403 7.58 106.333 7.9 106.333 8.3V25.4H110.953C111.693 25.4 112.233 25.22 112.573 24.86C112.933 24.5 113.273 23.98 113.593 23.3L114.763 20.78H115.063L114.793 26H100.213ZM123.944 26.45C122.424 26.45 121.104 26.14 119.984 25.52C118.864 24.88 117.994 23.98 117.374 22.82C116.774 21.66 116.474 20.3 116.474 18.74C116.474 17.18 116.794 15.83 117.434 14.69C118.094 13.55 118.984 12.67 120.104 12.05C121.244 11.43 122.524 11.12 123.944 11.12C125.364 11.12 126.634 11.43 127.754 12.05C128.874 12.65 129.754 13.52 130.394 14.66C131.054 15.8 131.384 17.16 131.384 18.74C131.384 20.32 131.074 21.69 130.454 22.85C129.854 23.99 128.994 24.88 127.874 25.52C126.774 26.14 125.464 26.45 123.944 26.45ZM123.944 25.85C124.644 25.85 125.204 25.65 125.624 25.25C126.044 24.85 126.344 24.14 126.524 23.12C126.724 22.1 126.824 20.66 126.824 18.8C126.824 16.92 126.724 15.47 126.524 14.45C126.344 13.43 126.044 12.72 125.624 12.32C125.204 11.92 124.644 11.72 123.944 11.72C123.244 11.72 122.674 11.92 122.234 12.32C121.814 12.72 121.504 13.43 121.304 14.45C121.124 15.47 121.034 16.92 121.034 18.8C121.034 20.66 121.124 22.1 121.304 23.12C121.504 24.14 121.814 24.85 122.234 25.25C122.674 25.65 123.244 25.85 123.944 25.85ZM139.242 20.81C137.862 20.81 136.692 20.58 135.732 20.12V21.14C135.732 21.76 136.042 22.13 136.662 22.25L142.302 23.3C143.242 23.48 144.092 23.72 144.852 24.02C145.612 24.3 146.222 24.71 146.682 25.25C147.142 25.77 147.372 26.49 147.372 27.41C147.372 28.39 147.052 29.29 146.412 30.11C145.772 30.95 144.822 31.62 143.562 32.12C142.322 32.64 140.772 32.9 138.912 32.9C137.312 32.9 136.042 32.73 135.102 32.39C134.162 32.07 133.492 31.65 133.092 31.13C132.712 30.61 132.522 30.06 132.522 29.48C132.522 28.76 132.762 28.03 133.242 27.29C133.742 26.57 134.352 25.99 135.072 25.55C134.452 25.31 134.002 25 133.722 24.62C133.442 24.24 133.302 23.83 133.302 23.39C133.302 22.99 133.402 22.62 133.602 22.28C133.822 21.92 134.082 21.56 134.382 21.2L135.372 19.94C133.912 19.1 133.182 17.78 133.182 15.98C133.182 14.54 133.692 13.37 134.712 12.47C135.752 11.57 137.272 11.12 139.272 11.12C140.292 11.12 141.182 11.24 141.942 11.48C142.722 11.72 143.362 12.06 143.862 12.5C144.502 12.4 145.102 12.24 145.662 12.02C146.242 11.78 146.762 11.46 147.222 11.06L147.642 11.36V12.89H144.252C144.972 13.69 145.332 14.72 145.332 15.98C145.332 17.38 144.812 18.54 143.772 19.46C142.752 20.36 141.242 20.81 139.242 20.81ZM139.212 20.21C140.012 20.21 140.592 19.88 140.952 19.22C141.332 18.56 141.522 17.46 141.522 15.92C141.522 14.38 141.332 13.3 140.952 12.68C140.592 12.04 140.032 11.72 139.272 11.72C138.532 11.72 137.972 12.05 137.592 12.71C137.212 13.35 137.022 14.44 137.022 15.98C137.022 17.52 137.192 18.61 137.532 19.25C137.892 19.89 138.452 20.21 139.212 20.21ZM134.742 28.52C134.742 29.7 135.102 30.59 135.822 31.19C136.562 31.79 137.722 32.09 139.302 32.09C140.962 32.09 142.212 31.82 143.052 31.28C143.892 30.74 144.312 29.98 144.312 29C144.312 28.44 144.102 27.99 143.682 27.65C143.282 27.31 142.592 27.05 141.612 26.87L136.182 25.85C136.022 25.81 135.862 25.77 135.702 25.73C135.422 26.13 135.192 26.58 135.012 27.08C134.832 27.6 134.742 28.08 134.742 28.52Z" fill="#1F2937"/>
<circle cx="156" cy="3.75" r="3.75" fill="#E11D48"/>
</svg>
