<svg width="800" height="400" viewBox="0 0 800 400" fill="none" xmlns="http://www.w3.org/2000/svg">
<rect width="800" height="400" fill="#FFE0E7"/>
<path d="M167.23 232V231.1L168.85 230.47C170.05 229.99 170.86 229.39 171.28 228.67C171.76 227.95 172 226.99 172 225.79V178.81C172 177.55 171.76 176.56 171.28 175.84C170.86 175.12 170.05 174.55 168.85 174.13L167.23 173.5V172.6H193.06C200.38 172.6 205.66 173.95 208.9 176.65C212.14 179.29 213.76 182.65 213.76 186.73C213.76 189.79 212.56 192.58 210.16 195.1C207.82 197.56 203.77 199.3 198.01 200.32C204.61 201.04 209.44 202.78 212.5 205.54C215.56 208.24 217.09 211.54 217.09 215.44C217.09 217.36 216.67 219.31 215.83 221.29C214.99 223.21 213.55 224.98 211.51 226.6C209.53 228.22 206.8 229.54 203.32 230.56C199.84 231.52 195.43 232 190.09 232H167.23ZM185.32 200.23H189.19C193.21 200.23 196.09 199.3 197.83 197.44C199.63 195.58 200.53 192.34 200.53 187.72C200.53 182.92 199.72 179.5 198.1 177.46C196.48 175.42 193.84 174.4 190.18 174.4H185.32V200.23ZM185.32 230.2H189.82C194.32 230.2 197.65 229 199.81 226.6C202.03 224.2 203.14 220.45 203.14 215.35C203.14 210.55 202.09 207.13 199.99 205.09C197.89 203.05 194.44 202.03 189.64 202.03H185.32V230.2ZM243.956 187.36C247.856 187.36 251.186 188.17 253.946 189.79C256.706 191.35 258.806 193.51 260.246 196.27C261.746 198.97 262.496 202.06 262.496 205.54C262.496 206.2 262.466 206.89 262.406 207.61C262.346 208.27 262.226 208.87 262.046 209.41H235.226C235.286 215.89 236.426 220.57 238.646 223.45C240.926 226.27 244.286 227.68 248.726 227.68C251.726 227.68 254.156 227.2 256.016 226.24C257.876 225.28 259.616 223.87 261.236 222.01L262.136 222.82C260.276 226.12 257.786 228.7 254.666 230.56C251.606 232.42 247.916 233.35 243.596 233.35C239.336 233.35 235.556 232.45 232.256 230.65C228.956 228.79 226.376 226.15 224.516 222.73C222.656 219.31 221.726 215.23 221.726 210.49C221.726 205.57 222.806 201.4 224.966 197.98C227.126 194.5 229.886 191.86 233.246 190.06C236.666 188.26 240.236 187.36 243.956 187.36ZM243.686 189.16C241.946 189.16 240.446 189.7 239.186 190.78C237.986 191.8 237.026 193.66 236.306 196.36C235.646 199 235.286 202.75 235.226 207.61H250.616C251.216 201.07 250.976 196.36 249.896 193.48C248.816 190.6 246.746 189.16 243.686 189.16ZM279.77 233.35C276.29 233.35 273.35 232.36 270.95 230.38C268.61 228.4 267.44 225.55 267.44 221.83C267.44 219.01 268.88 216.43 271.76 214.09C274.64 211.69 279.17 209.89 285.35 208.69C286.31 208.51 287.39 208.33 288.59 208.15C289.79 207.91 291.05 207.67 292.37 207.43V200.32C292.37 196.24 291.86 193.39 290.84 191.77C289.88 190.09 288.35 189.25 286.25 189.25C284.81 189.25 283.67 189.73 282.83 190.69C281.99 191.59 281.45 193.18 281.21 195.46L281.03 196.45C280.91 199.03 280.28 200.92 279.14 202.12C278 203.32 276.59 203.92 274.91 203.92C273.35 203.92 272.06 203.44 271.04 202.48C270.02 201.52 269.51 200.23 269.51 198.61C269.51 196.15 270.35 194.08 272.03 192.4C273.77 190.72 276.05 189.46 278.87 188.62C281.69 187.78 284.75 187.36 288.05 187.36C293.39 187.36 297.5 188.68 300.38 191.32C303.32 193.9 304.79 198.13 304.79 204.01V223.9C304.79 226.6 306.05 227.95 308.57 227.95H310.55L311.36 228.67C310.22 230.11 308.96 231.22 307.58 232C306.26 232.78 304.37 233.17 301.91 233.17C299.27 233.17 297.17 232.57 295.61 231.37C294.11 230.11 293.12 228.46 292.64 226.42C290.84 228.34 288.98 229.99 287.06 231.37C285.2 232.69 282.77 233.35 279.77 233.35ZM285.26 227.86C286.46 227.86 287.57 227.59 288.59 227.05C289.67 226.45 290.93 225.55 292.37 224.35V209.23C291.77 209.35 291.17 209.47 290.57 209.59C289.97 209.71 289.28 209.83 288.5 209.95C285.74 210.67 283.52 211.9 281.84 213.64C280.22 215.32 279.41 217.6 279.41 220.48C279.41 222.94 279.98 224.8 281.12 226.06C282.26 227.26 283.64 227.86 285.26 227.86ZM328.799 233.35C326.459 233.35 324.299 232.9 322.319 232C320.399 231.1 318.869 229.66 317.729 227.68C316.649 225.64 316.139 222.97 316.199 219.67L316.469 196.54C316.469 195.16 316.229 194.17 315.749 193.57C315.269 192.97 314.519 192.55 313.499 192.31L312.419 191.95V191.05L328.529 187.9L329.429 188.8L328.979 201.58V223.27C328.979 225.19 329.519 226.6 330.599 227.5C331.739 228.4 333.149 228.85 334.829 228.85C336.509 228.85 338.009 228.61 339.329 228.13C340.649 227.65 341.969 226.93 343.289 225.97L343.649 196.63C343.649 195.25 343.439 194.29 343.019 193.75C342.599 193.15 341.819 192.73 340.679 192.49L339.779 192.22V191.32L355.529 187.9L356.429 188.8L356.159 201.58V225.97C356.159 227.29 356.339 228.31 356.699 229.03C357.059 229.75 357.839 230.35 359.039 230.83L359.939 231.1V232L344.189 232.9L343.379 227.59C341.399 229.21 339.239 230.59 336.899 231.73C334.619 232.81 331.919 233.35 328.799 233.35ZM380.673 233.35C376.833 233.35 373.833 232.39 371.673 230.47C369.573 228.55 368.523 225.49 368.523 221.29V190.51H362.313V189.61L364.473 189.25C366.333 188.83 367.923 188.23 369.243 187.45C370.623 186.67 371.973 185.62 373.293 184.3L380.673 176.11H381.573L381.303 188.71H391.383V190.51H381.213V222.91C381.213 225.01 381.663 226.6 382.563 227.68C383.523 228.76 384.723 229.3 386.163 229.3C387.423 229.3 388.533 229 389.493 228.4C390.453 227.74 391.413 226.87 392.373 225.79L393.273 226.69C392.073 228.73 390.423 230.35 388.323 231.55C386.223 232.75 383.673 233.35 380.673 233.35ZM404.637 253.6C402.237 253.6 400.317 253 398.877 251.8C397.497 250.6 396.807 249.07 396.807 247.21C396.807 245.53 397.407 244.18 398.607 243.16C399.807 242.14 401.157 241.63 402.657 241.63C404.157 241.63 405.417 241.93 406.437 242.53C407.457 243.19 408.357 244.12 409.137 245.32L409.767 246.04C411.087 247.84 412.407 247.81 413.727 245.95C414.267 245.05 414.867 243.85 415.527 242.35C416.247 240.91 417.057 238.96 417.957 236.5L400.497 194.74C400.077 193.6 399.627 192.7 399.147 192.04C398.667 191.32 397.887 190.72 396.807 190.24L395.187 189.61V188.71H417.597V189.52L415.797 190.24C414.477 190.66 413.787 191.35 413.727 192.31C413.727 193.21 413.967 194.35 414.447 195.73L423.807 220.03L432.717 195.46C433.197 194.08 433.377 192.94 433.257 192.04C433.137 191.08 432.387 190.42 431.007 190.06L429.117 189.61V188.71H441.627V189.61L439.647 190.24C438.267 190.66 437.307 191.26 436.767 192.04C436.227 192.82 435.717 193.9 435.237 195.28L420.747 234.79C418.407 241.09 416.067 245.8 413.727 248.92C411.387 252.04 408.357 253.6 404.637 253.6ZM464.388 232V231.1L466.278 230.38C467.538 229.9 468.318 229.33 468.618 228.67C468.978 227.95 469.158 226.99 469.158 225.79V178.81C469.158 177.61 468.978 176.65 468.618 175.93C468.258 175.21 467.478 174.64 466.278 174.22L464.388 173.5V172.6H487.338V173.5L485.718 174.22C484.578 174.64 483.798 175.24 483.378 176.02C482.958 176.74 482.748 177.7 482.748 178.9V230.2H496.608C498.828 230.2 500.448 229.66 501.468 228.58C502.548 227.5 503.568 225.94 504.528 223.9L508.038 216.34H508.938L508.128 232H464.388ZM535.582 233.35C531.022 233.35 527.062 232.42 523.702 230.56C520.342 228.64 517.732 225.94 515.872 222.46C514.072 218.98 513.172 214.9 513.172 210.22C513.172 205.54 514.132 201.49 516.052 198.07C518.032 194.65 520.702 192.01 524.062 190.15C527.482 188.29 531.322 187.36 535.582 187.36C539.842 187.36 543.652 188.29 547.012 190.15C550.372 191.95 553.012 194.56 554.932 197.98C556.912 201.4 557.902 205.48 557.902 210.22C557.902 214.96 556.972 219.07 555.112 222.55C553.312 225.97 550.732 228.64 547.372 230.56C544.072 232.42 540.142 233.35 535.582 233.35ZM535.582 231.55C537.682 231.55 539.362 230.95 540.622 229.75C541.882 228.55 542.782 226.42 543.322 223.36C543.922 220.3 544.222 215.98 544.222 210.4C544.222 204.76 543.922 200.41 543.322 197.35C542.782 194.29 541.882 192.16 540.622 190.96C539.362 189.76 537.682 189.16 535.582 189.16C533.482 189.16 531.772 189.76 530.452 190.96C529.192 192.16 528.262 194.29 527.662 197.35C527.122 200.41 526.852 204.76 526.852 210.4C526.852 215.98 527.122 220.3 527.662 223.36C528.262 226.42 529.192 228.55 530.452 229.75C531.772 230.95 533.482 231.55 535.582 231.55ZM581.475 216.43C577.335 216.43 573.825 215.74 570.945 214.36V217.42C570.945 219.28 571.875 220.39 573.735 220.75L590.655 223.9C593.475 224.44 596.025 225.16 598.305 226.06C600.585 226.9 602.415 228.13 603.795 229.75C605.175 231.31 605.865 233.47 605.865 236.23C605.865 239.17 604.905 241.87 602.985 244.33C601.065 246.85 598.215 248.86 594.435 250.36C590.715 251.92 586.065 252.7 580.485 252.7C575.685 252.7 571.875 252.19 569.055 251.17C566.235 250.21 564.225 248.95 563.025 247.39C561.885 245.83 561.315 244.18 561.315 242.44C561.315 240.28 562.035 238.09 563.475 235.87C564.975 233.71 566.805 231.97 568.965 230.65C567.105 229.93 565.755 229 564.915 227.86C564.075 226.72 563.655 225.49 563.655 224.17C563.655 222.97 563.955 221.86 564.555 220.84C565.215 219.76 565.995 218.68 566.895 217.6L569.865 213.82C565.485 211.3 563.295 207.34 563.295 201.94C563.295 197.62 564.825 194.11 567.885 191.41C571.005 188.71 575.565 187.36 581.565 187.36C584.625 187.36 587.295 187.72 589.575 188.44C591.915 189.16 593.835 190.18 595.335 191.5C597.255 191.2 599.055 190.72 600.735 190.06C602.475 189.34 604.035 188.38 605.415 187.18L606.675 188.08V192.67H596.505C598.665 195.07 599.745 198.16 599.745 201.94C599.745 206.14 598.185 209.62 595.065 212.38C592.005 215.08 587.475 216.43 581.475 216.43ZM581.385 214.63C583.785 214.63 585.525 213.64 586.605 211.66C587.745 209.68 588.315 206.38 588.315 201.76C588.315 197.14 587.745 193.9 586.605 192.04C585.525 190.12 583.845 189.16 581.565 189.16C579.345 189.16 577.665 190.15 576.525 192.13C575.385 194.05 574.815 197.32 574.815 201.94C574.815 206.56 575.325 209.83 576.345 211.75C577.425 213.67 579.105 214.63 581.385 214.63ZM567.975 239.56C567.975 243.1 569.055 245.77 571.215 247.57C573.435 249.37 576.915 250.27 581.655 250.27C586.635 250.27 590.385 249.46 592.905 247.84C595.425 246.22 596.685 243.94 596.685 241C596.685 239.32 596.055 237.97 594.795 236.95C593.595 235.93 591.525 235.15 588.585 234.61L572.295 231.55C571.815 231.43 571.335 231.31 570.855 231.19C570.015 232.39 569.325 233.74 568.785 235.24C568.245 236.8 567.975 238.24 567.975 239.56Z" fill="#1F2937"/>
<circle cx="623.5" cy="166.25" r="11.25" fill="#E11D48"/>
</svg>
